<?xml version="1.0" encoding="UTF-8" standalone="no"?>
<svg
   xmlns:dc="http://purl.org/dc/elements/1.1/"
   xmlns:cc="http://creativecommons.org/ns#"
   xmlns:rdf="http://www.w3.org/1999/02/22-rdf-syntax-ns#"
   xmlns:svg="http://www.w3.org/2000/svg"
   xmlns="http://www.w3.org/2000/svg"
   viewBox="0 0 1200 675"
   height="675"
   width="1200"
   xml:space="preserve"
   version="1.1"
   id="svg2"><metadata
     id="metadata8"><rdf:RDF><cc:Work
         rdf:about=""><dc:format>image/svg+xml</dc:format><dc:type
           rdf:resource="http://purl.org/dc/dcmitype/StillImage" /></cc:Work></rdf:RDF></metadata><defs
     id="defs6"><clipPath
       id="clipPath16"
       clipPathUnits="userSpaceOnUse"><path
         style="clip-rule:evenodd"
         id="path18"
         d="m 0,2.4414e-4 960,0 0,539.99999586 -960,0 L 0,2.4414e-4 Z" /></clipPath><linearGradient
       id="linearGradient20"
       spreadMethod="pad"
       gradientUnits="userSpaceOnUse"
       y2="351.48001"
       x2="480"
       y1="-79.800003"
       x1="480"><stop
         id="stop22"
         offset="0"
         style="stop-opacity:1;stop-color:#76185c" /><stop
         id="stop24"
         offset="0.10333"
         style="stop-opacity:1;stop-color:#571a54" /><stop
         id="stop26"
         offset="0.33333"
         style="stop-opacity:1;stop-color:#571a54" /><stop
         id="stop28"
         offset="0.56333"
         style="stop-opacity:1;stop-color:#571a54" /><stop
         id="stop30"
         offset="0.66667"
         style="stop-opacity:1;stop-color:#76185c" /><stop
         id="stop32"
         offset="0.77"
         style="stop-opacity:1;stop-color:#571a54" /><stop
         id="stop34"
         offset="1"
         style="stop-opacity:1;stop-color:#571a54" /></linearGradient></defs><g
     transform="matrix(1.25,0,0,-1.25,0,675)"
     id="g10"><g
       id="g12"><g
         clip-path="url(#clipPath16)"
         id="g14"><path
           id="path36"
           style="fill:url(#linearGradient20);fill-opacity:1;fill-rule:evenodd;stroke:none"
           d="m 505.89,207.68 c 9.17,-0.1 18.92,-0.38 29.52,-0.93 42.38,-2.16 100.73,-4.72 150.9,-14.54 50.18,-9.82 107.5,-27.56 150.14,-44.4 21.32,-8.42 79.8,-19.11 116.92,-29.42 l 6.51,-1.96 0,-22.931 -6.62,-0.999 c -3.4,-0.457 -7.09,-0.903 -11.1,-1.338 C 813.98,77.255 213.04,61.18 67.372,64.369 c -145.671,3.19 -10.979,35.596 0,48.231 10.98,12.63 42.128,18.88 65.878,27.55 23.75,8.68 76.6,24.5 76.6,24.5 23.75,7.4 43.79,14.67 65.88,19.9 22.09,5.24 40.6,8.04 66.64,11.49 26.05,3.44 57.45,7.4 89.63,9.18 24.13,1.34 46.39,2.75 73.89,2.46 z" /></g></g></g></svg>