<?xml version="1.0" encoding="UTF-8" standalone="no"?>
<svg
   xmlns:dc="http://purl.org/dc/elements/1.1/"
   xmlns:cc="http://creativecommons.org/ns#"
   xmlns:rdf="http://www.w3.org/1999/02/22-rdf-syntax-ns#"
   xmlns:svg="http://www.w3.org/2000/svg"
   xmlns="http://www.w3.org/2000/svg"
   viewBox="0 0 1200 675"
   height="675"
   width="1200"
   xml:space="preserve"
   version="1.1"
   id="svg2"><metadata
     id="metadata8"><rdf:RDF><cc:Work
         rdf:about=""><dc:format>image/svg+xml</dc:format><dc:type
           rdf:resource="http://purl.org/dc/dcmitype/StillImage" /></cc:Work></rdf:RDF></metadata><defs
     id="defs6"><linearGradient
       id="linearGradient14"
       spreadMethod="pad"
       gradientUnits="userSpaceOnUse"
       y2="-154.08"
       x2="479.64001"
       y1="439.56"
       x1="479.64001"><stop
         id="stop16"
         offset="0"
         style="stop-opacity:1;stop-color:#af216e" /><stop
         id="stop18"
         offset="0.25"
         style="stop-opacity:1;stop-color:#af216e" /><stop
         id="stop20"
         offset="0.33333"
         style="stop-opacity:1;stop-color:#ff393f" /><stop
         id="stop22"
         offset="0.41667"
         style="stop-opacity:1;stop-color:#af216e" /><stop
         id="stop24"
         offset="0.66667"
         style="stop-opacity:1;stop-color:#af216e" /><stop
         id="stop26"
         offset="0.91667"
         style="stop-opacity:1;stop-color:#af216e" /><stop
         id="stop28"
         offset="1"
         style="stop-opacity:1;stop-color:#ff393f" /></linearGradient></defs><g
     transform="matrix(1.25,0,0,-1.25,0,675)"
     id="g10"><g
       id="g12"><path
         id="path30"
         style="fill:url(#linearGradient14);fill-opacity:1;fill-rule:evenodd;stroke:none"
         d="m 844.16,241.61 c 38.18,0.48 78.83,-1.59 106.3,-6.91 l 8.82,-2.2 0,-185.552 -7.88,-1.075 C 849.4,35.59 567.72,66.672 417.49,71.113 267.26,75.553 124.28,63.79 50.024,72.515 31.46,74.696 18.068,77.895 8.229,81.735 L 0,85.881 0,188.95 l 12.546,3.13 c 5.76,1.21 12.154,2.43 19.245,3.83 28.363,5.61 77.759,11.06 114.539,13.55 36.78,2.49 64.13,2.49 106.13,1.4 42,-1.09 105.11,-4.59 145.86,-7.94 40.76,-3.35 71.07,-11.76 98.65,-12.15 27.58,-0.39 66.85,9.81 66.85,9.81 l 108.47,17.29 c 40.59,6.63 88.75,19.64 135.11,22.44 11.59,0.7 24.04,1.14 36.76,1.3 z" /></g></g></svg>