<?xml version="1.0" encoding="UTF-8" standalone="no"?>
<svg
   xmlns:dc="http://purl.org/dc/elements/1.1/"
   xmlns:cc="http://creativecommons.org/ns#"
   xmlns:rdf="http://www.w3.org/1999/02/22-rdf-syntax-ns#"
   xmlns:svg="http://www.w3.org/2000/svg"
   xmlns="http://www.w3.org/2000/svg"
   viewBox="0 0 1200 675"
   height="675"
   width="1200"
   xml:space="preserve"
   version="1.1"
   id="svg2"><metadata
     id="metadata8"><rdf:RDF><cc:Work
         rdf:about=""><dc:format>image/svg+xml</dc:format><dc:type
           rdf:resource="http://purl.org/dc/dcmitype/StillImage" /></cc:Work></rdf:RDF></metadata><defs
     id="defs6"><clipPath
       id="clipPath16"
       clipPathUnits="userSpaceOnUse"><path
         style="clip-rule:evenodd"
         id="path18"
         d="m 0,1.2207e-4 960,0 0,539.99999793 -960,0 L 0,1.2207e-4 Z" /></clipPath><linearGradient
       id="linearGradient20"
       spreadMethod="pad"
       gradientUnits="userSpaceOnUse"
       y2="340.92001"
       x2="480"
       y1="-90.720001"
       x1="480"><stop
         id="stop22"
         offset="0"
         style="stop-opacity:1;stop-color:#76185c" /><stop
         id="stop24"
         offset="0.10333"
         style="stop-opacity:1;stop-color:#571a54" /><stop
         id="stop26"
         offset="0.33333"
         style="stop-opacity:1;stop-color:#571a54" /><stop
         id="stop28"
         offset="0.56333"
         style="stop-opacity:1;stop-color:#571a54" /><stop
         id="stop30"
         offset="0.66667"
         style="stop-opacity:1;stop-color:#76185c" /><stop
         id="stop32"
         offset="0.77"
         style="stop-opacity:1;stop-color:#571a54" /><stop
         id="stop34"
         offset="1"
         style="stop-opacity:1;stop-color:#571a54" /></linearGradient></defs><g
     transform="matrix(1.25,0,0,-1.25,0,675)"
     id="g10"><g
       id="g12"><g
         clip-path="url(#clipPath16)"
         id="g14"><path
           id="path36"
           style="fill:url(#linearGradient20);fill-opacity:1;fill-rule:evenodd;stroke:none"
           d="m 505.89,197 c 9.17,-0.1 18.92,-0.38 29.52,-0.93 42.38,-2.17 100.73,-4.72 150.9,-14.55 50.18,-9.84 107.5,-27.58 150.14,-44.44 21.32,-8.43 79.8,-19.12 116.92,-29.45 l 6.51,-1.96 0,-22.946 -6.62,-1 c -3.4,-0.458 -7.09,-0.904 -11.1,-1.339 C 813.98,66.466 213.04,50.377 67.372,53.569 c -145.671,3.193 -10.979,35.626 0,48.271 10.98,12.64 42.128,18.9 65.878,27.58 23.75,8.68 76.6,24.52 76.6,24.52 23.75,7.4 43.79,14.68 65.88,19.91 22.09,5.24 40.6,8.05 66.64,11.5 26.05,3.44 57.45,7.4 89.63,9.19 24.13,1.34 46.39,2.75 73.89,2.46 z" /></g></g></g></svg>