<?xml version="1.0" encoding="UTF-8" standalone="no"?>
<svg
   xmlns:dc="http://purl.org/dc/elements/1.1/"
   xmlns:cc="http://creativecommons.org/ns#"
   xmlns:rdf="http://www.w3.org/1999/02/22-rdf-syntax-ns#"
   xmlns:svg="http://www.w3.org/2000/svg"
   xmlns="http://www.w3.org/2000/svg"
   viewBox="0 0 1200 675"
   height="675"
   width="1200"
   xml:space="preserve"
   version="1.1"
   id="svg2"><metadata
     id="metadata8"><rdf:RDF><cc:Work
         rdf:about=""><dc:format>image/svg+xml</dc:format><dc:type
           rdf:resource="http://purl.org/dc/dcmitype/StillImage" /></cc:Work></rdf:RDF></metadata><defs
     id="defs6"><clipPath
       id="clipPath16"
       clipPathUnits="userSpaceOnUse"><path
         style="clip-rule:evenodd"
         id="path18"
         d="m 0,1.2207e-4 960,0 0,539.99999793 -960,0 L 0,1.2207e-4 Z" /></clipPath><linearGradient
       id="linearGradient20"
       spreadMethod="pad"
       gradientUnits="userSpaceOnUse"
       y2="104.34"
       x2="958.32001"
       y1="104.34"
       x1="-264.23999"><stop
         id="stop22"
         offset="0"
         style="stop-opacity:1;stop-color:#0f1a23" /><stop
         id="stop24"
         offset="0.265"
         style="stop-opacity:1;stop-color:#0f1a23" /><stop
         id="stop26"
         offset="0.5"
         style="stop-opacity:1;stop-color:#1b2e3d" /><stop
         id="stop28"
         offset="0.735"
         style="stop-opacity:1;stop-color:#0f1a23" /><stop
         id="stop30"
         offset="1"
         style="stop-opacity:1;stop-color:#0f1a23" /></linearGradient><clipPath
       id="clipPath38"
       clipPathUnits="userSpaceOnUse"><path
         style="clip-rule:evenodd"
         id="path40"
         d="m -6.1035e-5,2.4414e-4 960.000001035,0 0,539.99999586 -960.000001035,0 0,-539.99999586 z" /></clipPath><linearGradient
       id="linearGradient42"
       spreadMethod="pad"
       gradientUnits="userSpaceOnUse"
       y2="489.47"
       x2="1140.9399"
       y1="-277.31"
       x1="517.94"><stop
         id="stop44"
         offset="0"
         style="stop-opacity:1;stop-color:#1b2e3d" /><stop
         id="stop46"
         offset="0.0033333"
         style="stop-opacity:1;stop-color:#1b2e3d" /><stop
         id="stop48"
         offset="0.29333"
         style="stop-opacity:1;stop-color:#0f1a23" /><stop
         id="stop50"
         offset="0.33333"
         style="stop-opacity:1;stop-color:#0f1a23" /><stop
         id="stop52"
         offset="0.37333"
         style="stop-opacity:1;stop-color:#0f1a23" /><stop
         id="stop54"
         offset="0.66333"
         style="stop-opacity:1;stop-color:#1b2e3d" /><stop
         id="stop56"
         offset="0.66667"
         style="stop-opacity:1;stop-color:#1b2e3d" /><stop
         id="stop58"
         offset="0.67"
         style="stop-opacity:1;stop-color:#1b2e3d" /><stop
         id="stop60"
         offset="0.96"
         style="stop-opacity:1;stop-color:#0f1a23" /><stop
         id="stop62"
         offset="1"
         style="stop-opacity:1;stop-color:#0f1a23" /></linearGradient><linearGradient
       id="linearGradient68"
       spreadMethod="pad"
       gradientUnits="userSpaceOnUse"
       y2="273.73999"
       x2="240.97"
       y1="-197.92999"
       x1="-250.84"><stop
         id="stop70"
         offset="0"
         style="stop-opacity:1;stop-color:#243d52" /><stop
         id="stop72"
         offset="0.18"
         style="stop-opacity:1;stop-color:#1b2e3d" /><stop
         id="stop74"
         offset="0.5"
         style="stop-opacity:1;stop-color:#1b2e3d" /><stop
         id="stop76"
         offset="0.82"
         style="stop-opacity:1;stop-color:#1b2e3d" /><stop
         id="stop78"
         offset="1"
         style="stop-opacity:1;stop-color:#243d52" /></linearGradient><clipPath
       id="clipPath86"
       clipPathUnits="userSpaceOnUse"><path
         style="clip-rule:evenodd"
         id="path88"
         d="m 0,1.2207e-4 960,0 0,539.99999793 -960,0 L 0,1.2207e-4 Z" /></clipPath><linearGradient
       id="linearGradient90"
       spreadMethod="pad"
       gradientUnits="userSpaceOnUse"
       y2="6.1035e-05"
       x2="175.8"
       y1="476.64001"
       x1="175.8"><stop
         id="stop92"
         offset="0"
         style="stop-opacity:1;stop-color:#0f1a23" /><stop
         id="stop94"
         offset="0.255"
         style="stop-opacity:1;stop-color:#0f1a23" /><stop
         id="stop96"
         offset="0.5"
         style="stop-opacity:1;stop-color:#1b2e3d" /><stop
         id="stop98"
         offset="0.745"
         style="stop-opacity:1;stop-color:#0f1a23" /><stop
         id="stop100"
         offset="1"
         style="stop-opacity:1;stop-color:#0f1a23" /></linearGradient><linearGradient
       id="linearGradient106"
       spreadMethod="pad"
       gradientUnits="userSpaceOnUse"
       y2="-189.48"
       x2="830.88"
       y1="758.03998"
       x1="830.88"><stop
         id="stop108"
         offset="0"
         style="stop-opacity:1;stop-color:#13202b" /><stop
         id="stop110"
         offset="0.03"
         style="stop-opacity:1;stop-color:#0f1a23" /><stop
         id="stop112"
         offset="0.23333"
         style="stop-opacity:1;stop-color:#0f1a23" /><stop
         id="stop114"
         offset="0.33333"
         style="stop-opacity:1;stop-color:#1b2e3d" /><stop
         id="stop116"
         offset="0.43333"
         style="stop-opacity:1;stop-color:#0f1a23" /><stop
         id="stop118"
         offset="0.63667"
         style="stop-opacity:1;stop-color:#0f1a23" /><stop
         id="stop120"
         offset="0.66667"
         style="stop-opacity:1;stop-color:#13202b" /><stop
         id="stop122"
         offset="0.69667"
         style="stop-opacity:1;stop-color:#0f1a23" /><stop
         id="stop124"
         offset="0.9"
         style="stop-opacity:1;stop-color:#0f1a23" /><stop
         id="stop126"
         offset="1"
         style="stop-opacity:1;stop-color:#1b2e3d" /></linearGradient></defs><g
     transform="matrix(1.25,0,0,-1.25,0,675)"
     id="g10"><g
       id="g12"><g
         clip-path="url(#clipPath16)"
         id="g14"><path
           id="path32"
           style="fill:url(#linearGradient20);fill-opacity:1;fill-rule:evenodd;stroke:none"
           d="m 788.21,208.63 c 26.91,0.22 59.32,-0.31 83.93,-1.71 28.7,-1.65 63.2,-6.33 81.52,-9.01 l 4.66,-0.69 0,-197.219938965 -611.28,0 0,65.094938965 0.98,0.866 c 20.91,15.506 61.14,28.745 97.02,44.539 41,18.05 99.15,41.84 141.31,56.97 42.17,15.13 82.12,27.03 111.67,33.81 29.54,6.78 36.59,5.95 65.61,6.89 7.25,0.23 15.61,0.39 24.58,0.46 z" /></g></g><g
       id="g34"><g
         clip-path="url(#clipPath38)"
         id="g36"><path
           id="path64"
           style="fill:url(#linearGradient42);fill-opacity:1;fill-rule:evenodd;stroke:none"
           d="m 781.96,212.16 c 2.05,0 4.14,-0.02 6.34,-0.06 8.79,-0.19 19.33,-0.76 35.69,-1.79 32.72,-2.07 111.19,-8.39 135.39,-11.18 L 960,199.05 960,6.1035e-5 l -115.38,0 L 844.41,0.12628 C 841.8,1.8575 838.84,3.9091 835.07,6.5237 819.99,16.982 796.5,34.586 780.3,49.393 764.09,64.201 748.81,81.079 737.83,95.369 726.86,109.66 720.5,121.36 714.45,135.13 708.4,148.9 703.99,166.72 701.52,178 c -1.84,8.47 -2.88,15.77 -2.59,20.72 l 0.53,2.94 18.39,3.42 3.33,0.56 c 11.6,2.03 27.81,5.14 41.89,5.91 7.03,0.39 12.76,0.6 18.89,0.61 z" /></g></g><g
       id="g66"><path
         id="path80"
         style="fill:url(#linearGradient68);fill-opacity:1;fill-rule:evenodd;stroke:none"
         d="M 80.767,278.88 236.04,238.19 0,32.76 0,247.91 80.767,278.88 Z" /></g><g
       id="g82"><g
         clip-path="url(#clipPath86)"
         id="g84"><path
           id="path102"
           style="fill:url(#linearGradient90);fill-opacity:1;fill-rule:evenodd;stroke:none"
           d="m 236.11,238.32 37.64,-57.03 -18.82,-39.15 79.56,-38.3 L 351.6,64.687 350.74,0 0,0 0,41.492 0.85256,62.133 236.11,238.32 Z" /></g></g><g
       id="g104"><path
         id="path128"
         style="fill:url(#linearGradient106);fill-opacity:1;fill-rule:evenodd;stroke:none"
         d="m 810.31,286.94 -0.32,-0.24 -3.82,-8.87 c -0.36,-0.83 -1.32,-1.21 -2.14,-0.85 l -0.35,0.15 -23.92,-55.49 28.89,18.56 2.77,28.07 -1.11,0.11 c -1.09,0.1 -1.89,1.07 -1.78,2.16 l 1.23,12.5 0.2,0.36 0.35,3.54 z m 12.19,2.66 -0.91,-9.24 -0.2,-0.36 -1.04,-10.63 c -0.11,-1.08 -1.08,-1.88 -2.17,-1.77 l -1.16,0.11 -2.69,-27.26 43.46,-15.08 -21.89,49.01 -0.08,-0.03 c -0.81,-0.39 -1.78,-0.04 -2.16,0.77 l -4.3,9.1 -6.86,5.38 z m -65.17,152.58 c 1.14,0.1 2.32,-0.24 3.26,-1.04 l 24.45,-20.71 c 1.41,-1.2 1.9,-3.09 1.38,-4.75 l -0.43,-0.78 109.08,-92.4 4.11,2.78 -3.19,2.7 c -0.58,0.5 -0.65,1.37 -0.16,1.95 l 3.57,4.21 c 0.49,0.58 1.36,0.65 1.94,0.16 l 9.55,-8.09 c 0.59,-0.49 0.66,-1.36 0.16,-1.94 l -3.57,-4.21 c -0.49,-0.59 -1.36,-0.66 -1.94,-0.17 l -0.28,0.24 -0.76,-5.62 3.4,-2.88 -0.05,-0.07 -0.53,-4.54 2.68,-2.68 -0.22,-3.54 2.04,-1.92 6,-0.11 2.76,2.68 -0.03,0.03 c -0.25,0.22 -0.28,0.6 -0.07,0.85 l 1.56,1.84 c 0.22,0.26 0.6,0.29 0.85,0.07 l 4.98,-4.21 c 0.25,-0.21 0.28,-0.59 0.07,-0.85 l -1.57,-1.84 -0.29,-0.03 -9.54,-10.33 -5.68,-0.54 -3.54,5.04 -2.79,-4.82 -5.04,0.11 -3.11,2.57 0.97,5.03 -2.47,2.36 0.03,0.03 -62.52,52.97 -4.61,-5.44 24.79,-21.01 1.14,1.35 c 0.67,0.79 1.86,0.89 2.65,0.22 l 5.93,-5.03 c 0.79,-0.67 0.89,-1.85 0.22,-2.64 l -4.85,-5.72 c -0.67,-0.79 -1.85,-0.89 -2.64,-0.22 l -5.94,5.03 c -0.79,0.67 -0.89,1.85 -0.22,2.64 l 2.31,2.73 -24.9,21.09 -9.07,-10.7 14.45,-12.24 0.48,-0.94 0.29,-0.29 0,-0.27 0.2,-0.38 -0.2,-0.63 0,-12.4 c 0,-0.2 -0.16,-0.36 -0.36,-0.36 l -1.44,0 c -0.2,0 -0.36,0.16 -0.36,0.36 l 0,8.99 -3.54,-4.17 0,-11.03 9.9,-7.75 0.38,-0.66 0.52,-0.48 4.95,-10.5 c 0.39,-0.81 0.04,-1.78 -0.77,-2.16 l -0.71,-0.34 62.43,-139.74 c 0.21,-0.47 0,-1.03 -0.47,-1.24 l -3.43,-1.53 c -0.47,-0.21 -1.03,0 -1.24,0.48 l -38.45,86.07 -47.1,3.34 -9.25,-93.74 c -0.05,-0.52 -0.51,-0.9 -1.03,-0.85 l -3.73,0.37 c -0.52,0.05 -0.9,0.51 -0.85,1.03 l 9.18,92.99 -28.24,-4.53 -39.88,-92.5 c -0.2,-0.48 -0.76,-0.7 -1.23,-0.49 l -3.45,1.48 c -0.48,0.21 -0.7,0.76 -0.49,1.24 l 64.75,150.2 -0.45,0.19 c -0.82,0.35 -1.2,1.31 -0.85,2.13 l 4.4,10.2 -0.01,0.06 0.15,0.26 0.06,0.14 0.04,0.04 0.37,0.63 7.92,6.11 0,17.16 -16.88,14.3 -0.16,0.31 -9.24,-10.89 4.05,-3.43 c 1.4,-1.19 1.58,-3.3 0.39,-4.71 l -15,-17.69 c -1.19,-1.41 -3.3,-1.58 -4.71,-0.39 l -4.04,3.43 -4.12,-4.86 c -0.13,-0.15 -0.35,-0.17 -0.51,-0.04 l -1.1,0.93 c -0.15,0.13 -0.17,0.35 -0.04,0.51 l 4.12,4.85 -4.5,3.82 c -1.41,1.19 -1.59,3.3 -0.39,4.7 l 14.99,17.7 0.8,0.41 -0.27,4.16 2.68,2.9 6.11,-0.33 4.94,-4.62 5.46,6.45 0.22,0.68 7.15,8.43 0.1,0.05 10.78,12.73 -3.9,3.3 -0.01,0.02 -9.19,7.79 c -0.15,0.13 -0.17,0.35 -0.04,0.51 l 0.93,1.1 c 0.13,0.15 0.36,0.17 0.51,0.04 l 7.75,-6.57 4.62,5.44 -38.42,32.54 -0.64,-0.5 c -1.56,-0.79 -3.5,-0.62 -4.92,0.58 l -24.44,20.71 c -1.89,1.59 -2.13,4.42 -0.53,6.31 l 11.59,13.67 c 0.8,0.94 1.91,1.47 3.05,1.56 z" /></g></g></svg>