<?xml version="1.0" encoding="UTF-8" standalone="no"?>
<svg
   xmlns:dc="http://purl.org/dc/elements/1.1/"
   xmlns:cc="http://creativecommons.org/ns#"
   xmlns:rdf="http://www.w3.org/1999/02/22-rdf-syntax-ns#"
   xmlns:svg="http://www.w3.org/2000/svg"
   xmlns="http://www.w3.org/2000/svg"
   viewBox="0 0 1200 675"
   height="675"
   width="1200"
   xml:space="preserve"
   version="1.1"
   id="svg2"><metadata
     id="metadata8"><rdf:RDF><cc:Work
         rdf:about=""><dc:format>image/svg+xml</dc:format><dc:type
           rdf:resource="http://purl.org/dc/dcmitype/StillImage" /></cc:Work></rdf:RDF></metadata><defs
     id="defs6"><clipPath
       id="clipPath28"
       clipPathUnits="userSpaceOnUse"><path
         style="clip-rule:evenodd"
         id="path30"
         d="M -3.0518e-5,540 960,540 960,1.8311e-4 0,1.2207e-4" /></clipPath></defs><g
     transform="matrix(1.25,0,0,-1.25,0,675)"
     id="g10"><path
       id="path12"
       style="fill:#111e28;fill-opacity:1;fill-rule:evenodd;stroke:none"
       d="m 603.84,354.12 94.32,-116.64 -89.3,8.37 -5.02,108.27 z" /><path
       id="path14"
       style="fill:#1b2e3d;fill-opacity:1;fill-rule:evenodd;stroke:none"
       d="m 510.18,235.27 93.77,118.85 14.51,-53.57 4.47,9.49 22.32,-47.43 36.28,-3.35 189.19,-100.48 -366.6,-2.78 6.06,79.27 z" /><path
       id="path16"
       style="fill:#111e28;fill-opacity:1;fill-rule:evenodd;stroke:none"
       d="m 449.33,452.4 57.5,-116.12 32.93,-166.36 -108.29,27.91 -16.75,73.14 12.84,137.33 21.77,44.1 z" /><path
       id="path18"
       style="fill:#1b2e3d;fill-opacity:1;fill-rule:evenodd;stroke:none"
       d="m 248.35,216.32 53.03,71.44 68.09,61.95 40.75,83.16 39.63,19.53 -16.19,-41.3 16.75,-49.67 -32.38,-92.09 41.31,-34.6 139.22,-88.58 -431.4,2.97 81.19,67.19 z" /><path
       id="path20"
       style="fill:#111e28;fill-opacity:1;fill-rule:evenodd;stroke:none"
       d="M 500.28,133.3 374.53,266.05 274.02,315.6 257.2,268.86 l 0.93,-6.08 24.78,10.28 -46.75,-144.9 264.12,5.14 z" /><path
       id="path22"
       style="fill:#1b2e3d;fill-opacity:1;fill-rule:evenodd;stroke:none"
       d="m 77.64,125.28 196.3,190.32 -14.49,-45.36 27.83,6.73 -44.66,-144.21 -164.98,-7.48 z" /><g
       id="g24"><g
         clip-path="url(#clipPath28)"
         id="g26"><path
           id="path32"
           style="fill:#111e28;fill-opacity:1;fill-rule:evenodd;stroke:none"
           d="m 333.34,334.57 -3.9,-1.63 2.48,-6.22 0.09,-0.24 3.21,6.19 -0.35,0.17 c -0.52,0.31 -1.05,0.91 -1.5,1.68 l -0.03,0.05 z m -7.66,6.59 0.87,-1.77 2.19,-4.87 3.95,1.65 -0.13,0.38 c -0.2,0.88 -0.19,1.67 0.02,2.21 l 0.21,0.35 -7.11,2.05 z m -15.59,20.67 c 2.98,-0.13 8.25,-6.76 13.57,-16.71 l 0.97,-1.86 10.47,-3.02 2.54,1.06 0.21,0.15 c 0.11,0.04 0.23,0.07 0.36,0.07 0.88,0 2.02,-1.13 2.71,-2.77 0.8,-1.87 0.71,-3.7 -0.2,-4.08 -0.11,-0.05 -0.23,-0.07 -0.36,-0.07 l -0.21,0.03 -2.52,-1.06 -4.84,-9.33 1.25,-3.59 c 3.76,-11.71 4.74,-20.64 1.96,-21.82 -0.69,-0.29 -1.57,-0.08 -2.59,0.57 l -0.9,0.67 -9.37,2.68 -14.15,11 -0.14,0.37 -0.1,0.03 c -0.39,0.19 -0.81,0.52 -1.26,0.97 l -0.92,1.07 1.75,-13.89 6.74,-8.54 -28.75,-0.11 10.89,9.88 1.1,4.06 -5.03,3.02 -5.27,0.33 0.11,4.16 5.05,-0.23 1.66,1.96 -0.28,0.36 c -0.4,0.61 -0.75,1.29 -1.04,2.01 -1.86,4.61 -0.51,9.5 3.01,10.92 l 0.19,0.05 4.12,2.85 0.05,0.31 c 0.07,0.26 0.17,0.48 0.29,0.65 l 0.04,0.03 -0.07,0.17 1.69,15.27 5.39,10.88 0.04,0.16 0.16,0.26 0.47,0.94 0.11,-0.25 0.34,0.26 c 0.23,0.1 0.49,0.14 0.76,0.13 z" /></g></g></g></svg>