<?xml version="1.0" encoding="UTF-8" standalone="no"?>
<svg
   xmlns:dc="http://purl.org/dc/elements/1.1/"
   xmlns:cc="http://creativecommons.org/ns#"
   xmlns:rdf="http://www.w3.org/1999/02/22-rdf-syntax-ns#"
   xmlns:svg="http://www.w3.org/2000/svg"
   xmlns="http://www.w3.org/2000/svg"
   viewBox="0 0 1200 675"
   height="675"
   width="1200"
   xml:space="preserve"
   version="1.1"
   id="svg2"><metadata
     id="metadata8"><rdf:RDF><cc:Work
         rdf:about=""><dc:format>image/svg+xml</dc:format><dc:type
           rdf:resource="http://purl.org/dc/dcmitype/StillImage" /></cc:Work></rdf:RDF></metadata><defs
     id="defs6"><linearGradient
       id="linearGradient14"
       spreadMethod="pad"
       gradientUnits="userSpaceOnUse"
       y2="-145.92"
       x2="479.64001"
       y1="448.07999"
       x1="479.64001"><stop
         id="stop16"
         offset="0"
         style="stop-opacity:1;stop-color:#17616e" /><stop
         id="stop18"
         offset="0.2"
         style="stop-opacity:1;stop-color:#17616e" /><stop
         id="stop20"
         offset="0.33"
         style="stop-opacity:1;stop-color:#19978f" /><stop
         id="stop22"
         offset="0.33333"
         style="stop-opacity:1;stop-color:#19978f" /><stop
         id="stop24"
         offset="0.33667"
         style="stop-opacity:1;stop-color:#19978f" /><stop
         id="stop26"
         offset="0.46667"
         style="stop-opacity:1;stop-color:#17616e" /><stop
         id="stop28"
         offset="0.66667"
         style="stop-opacity:1;stop-color:#17616e" /><stop
         id="stop30"
         offset="0.86667"
         style="stop-opacity:1;stop-color:#17616e" /><stop
         id="stop32"
         offset="0.99667"
         style="stop-opacity:1;stop-color:#19978f" /><stop
         id="stop34"
         offset="1"
         style="stop-opacity:1;stop-color:#19978f" /></linearGradient></defs><g
     transform="matrix(1.25,0,0,-1.25,0,675)"
     id="g10"><g
       id="g12"><path
         id="path36"
         style="fill:url(#linearGradient14);fill-opacity:1;fill-rule:evenodd;stroke:none"
         d="m 844.16,250.01 c 38.18,0.48 78.83,-1.59 106.3,-6.91 l 8.82,-2.2 0,-185.67 -7.88,-1.076 C 849.4,43.865 567.72,74.966 417.49,79.409 267.26,83.852 124.28,72.082 50.024,80.812 31.46,82.995 18.068,86.195 8.229,90.038 L 0,94.186 0,197.31 l 12.546,3.14 c 5.76,1.21 12.154,2.43 19.245,3.83 28.363,5.61 77.759,11.07 114.539,13.56 36.78,2.5 64.13,2.5 106.13,1.41 42,-1.1 105.11,-4.6 145.86,-7.96 40.76,-3.35 71.07,-11.77 98.65,-12.16 27.58,-0.38 66.85,9.83 66.85,9.83 l 108.47,17.3 c 40.59,6.63 88.75,19.64 135.11,22.45 11.59,0.7 24.04,1.14 36.76,1.3 z" /></g></g></svg>