<?xml version="1.0" encoding="UTF-8" standalone="no"?>
<svg
   xmlns:dc="http://purl.org/dc/elements/1.1/"
   xmlns:cc="http://creativecommons.org/ns#"
   xmlns:rdf="http://www.w3.org/1999/02/22-rdf-syntax-ns#"
   xmlns:svg="http://www.w3.org/2000/svg"
   xmlns="http://www.w3.org/2000/svg"
   viewBox="0 0 1200 675"
   height="675"
   width="1200"
   xml:space="preserve"
   version="1.1"
   id="svg2"><metadata
     id="metadata8"><rdf:RDF><cc:Work
         rdf:about=""><dc:format>image/svg+xml</dc:format><dc:type
           rdf:resource="http://purl.org/dc/dcmitype/StillImage" /></cc:Work></rdf:RDF></metadata><defs
     id="defs6"><clipPath
       id="clipPath16"
       clipPathUnits="userSpaceOnUse"><path
         style="clip-rule:evenodd"
         id="path18"
         d="m 0,1.2207e-4 960,0 0,539.99999793 -960,0 L 0,1.2207e-4 Z" /></clipPath><radialGradient
       id="radialGradient20"
       spreadMethod="pad"
       gradientTransform="matrix(550.73,0,0,550.73,480,270)"
       gradientUnits="userSpaceOnUse"
       r="1"
       cy="0"
       cx="0"
       fy="0"
       fx="0"><stop
         id="stop22"
         offset="0"
         style="stop-opacity:1;stop-color:#55afb2" /><stop
         id="stop24"
         offset="0.05"
         style="stop-opacity:1;stop-color:#43989f" /><stop
         id="stop26"
         offset="0.1"
         style="stop-opacity:1;stop-color:#367b8b" /><stop
         id="stop28"
         offset="0.15"
         style="stop-opacity:1;stop-color:#337488" /><stop
         id="stop30"
         offset="0.44"
         style="stop-opacity:1;stop-color:#26546e" /><stop
         id="stop32"
         offset="0.98"
         style="stop-opacity:1;stop-color:#172a4a" /><stop
         id="stop34"
         offset="1"
         style="stop-opacity:1;stop-color:#172a4a" /></radialGradient></defs><g
     transform="matrix(1.25,0,0,-1.25,0,675)"
     id="g10"><g
       id="g12"><g
         clip-path="url(#clipPath16)"
         id="g14"><path
           id="path36"
           style="fill:url(#radialGradient20);fill-opacity:1;fill-rule:evenodd;stroke:none"
           d="m 0,6.1035e-5 960,0 0,539.999998965 -960,0 L 0,6.1035e-5 Z" /></g></g><path
       id="path38"
       style="fill:#ffffff;fill-opacity:1;fill-rule:evenodd;stroke:none"
       d="m 474.24,394.8 2.12,0.99 0.94,2.25 0.94,-2.25 2.12,-0.99 -2.12,-0.99 -0.94,-2.25 -0.94,2.25 -2.12,0.99 z" /><path
       id="path40"
       style="fill:#ffffff;fill-opacity:1;fill-rule:evenodd;stroke:none"
       d="m 112.8,414 c 0,18.49 14.99,33.48 33.48,33.48 18.49,0 33.48,-14.99 33.48,-33.48 0,-18.49 -14.99,-33.48 -33.48,-33.48 -18.49,0 -33.48,14.99 -33.48,33.48 z" /><path
       id="path42"
       style="fill:#f1f1e5;fill-opacity:1;fill-rule:evenodd;stroke:none"
       d="m 120.72,423.66 c 0,3.94 3.2,7.14 7.14,7.14 3.94,0 7.14,-3.2 7.14,-7.14 0,-3.94 -3.2,-7.14 -7.14,-7.14 -3.94,0 -7.14,3.2 -7.14,7.14 z" /><path
       id="path44"
       style="fill:#f1f1e5;fill-opacity:1;fill-rule:evenodd;stroke:none"
       d="m 129.72,408.96 c 0,-0.99 -0.81,-1.8 -1.8,-1.8 -0.99,0 -1.8,0.81 -1.8,1.8 0,0.99 0.81,1.8 1.8,1.8 0.99,0 1.8,-0.81 1.8,-1.8 z" /><path
       id="path46"
       style="fill:#f1f1e5;fill-opacity:1;fill-rule:evenodd;stroke:none"
       d="m 144.48,433.38 c 0,2.75 -2.23,4.98 -4.98,4.98 -2.75,0 -4.98,-2.23 -4.98,-4.98 0,-2.75 2.23,-4.98 4.98,-4.98 2.75,0 4.98,2.23 4.98,4.98 z" /><path
       id="path48"
       style="fill:#ffffff;fill-opacity:1;fill-rule:evenodd;stroke:none"
       d="m 268.56,516.36 3.54,1.65 1.56,3.75 1.56,-3.75 3.54,-1.65 -3.54,-1.65 -1.56,-3.75 -1.56,3.75 -3.54,1.65 z" /><path
       id="path50"
       style="fill:#ffffff;fill-opacity:1;fill-rule:evenodd;stroke:none"
       d="m 653.16,381.48 3.5,1.65 1.54,3.75 1.54,-3.75 3.5,-1.65 -3.5,-1.65 -1.54,-3.75 -1.54,3.75 -3.5,1.65 z" /><path
       id="path52"
       style="fill:#ffffff;fill-opacity:1;fill-rule:evenodd;stroke:none"
       d="m 898.08,481.44 3.54,1.65 1.56,3.75 1.56,-3.75 3.54,-1.65 -3.54,-1.65 -1.56,-3.75 -1.56,3.75 -3.54,1.65 z" /><path
       id="path54"
       style="fill:#ffffff;fill-opacity:1;fill-rule:evenodd;stroke:none"
       d="m 524.76,296.04 3.54,1.65 1.56,3.75 1.56,-3.75 3.54,-1.65 -3.54,-1.65 -1.56,-3.75 -1.56,3.75 -3.54,1.65 z" /><path
       id="path56"
       style="fill:#ffffff;fill-opacity:1;fill-rule:evenodd;stroke:none"
       d="m 16.2,289.92 3.541,1.65 1.559,3.75 1.559,-3.75 3.541,-1.65 -3.541,-1.65 -1.559,-3.75 -1.559,3.75 -3.541,1.65 z" /><path
       id="path58"
       style="fill:#ffffff;fill-opacity:1;fill-rule:evenodd;stroke:none"
       d="m 16.8,512.16 1.25,0.59 0.55,1.33 0.55,-1.33 1.25,-0.59 -1.25,-0.59 -0.55,-1.33 -0.55,1.33 -1.25,0.59 z" /><path
       id="path60"
       style="fill:#ffffff;fill-opacity:1;fill-rule:evenodd;stroke:none"
       d="m 343.32,396.66 1.25,0.57 0.55,1.29 0.55,-1.29 1.25,-0.57 -1.25,-0.57 -0.55,-1.29 -0.55,1.29 -1.25,0.57 z" /><path
       id="path62"
       style="fill:#ffffff;fill-opacity:1;fill-rule:evenodd;stroke:none"
       d="m 732.6,334.62 1.25,0.57 0.55,1.29 0.55,-1.29 1.25,-0.57 -1.25,-0.57 -0.55,-1.29 -0.55,1.29 -1.25,0.57 z" /><path
       id="path64"
       style="fill:#ffffff;fill-opacity:1;fill-rule:evenodd;stroke:none"
       d="m 765.12,498.36 1.25,0.59 0.55,1.33 0.55,-1.33 1.25,-0.59 -1.25,-0.59 -0.55,-1.33 -0.55,1.33 -1.25,0.59 z" /><path
       id="path66"
       style="fill:#ffffff;fill-opacity:1;fill-rule:evenodd;stroke:none"
       d="m 539.76,487.32 1.25,0.59 0.55,1.33 0.55,-1.33 1.25,-0.59 -1.25,-0.59 -0.55,-1.33 -0.55,1.33 -1.25,0.59 z" /><path
       id="path68"
       style="fill:#ffffff;fill-opacity:1;fill-rule:evenodd;stroke:none"
       d="m 158.52,475.08 1.25,0.59 0.55,1.33 0.55,-1.33 1.25,-0.59 -1.25,-0.59 -0.55,-1.33 -0.55,1.33 -1.25,0.59 z" /><path
       id="path70"
       style="fill:#ffffff;fill-opacity:1;fill-rule:evenodd;stroke:none"
       d="m 398.88,485.34 1.25,0.57 0.55,1.29 0.55,-1.29 1.25,-0.57 -1.25,-0.57 -0.55,-1.29 -0.55,1.29 -1.25,0.57 z" /><path
       id="path72"
       style="fill:#ffffff;fill-opacity:1;fill-rule:evenodd;stroke:none"
       d="m 876.48,399.84 2.12,0.99 0.94,2.25 0.94,-2.25 2.12,-0.99 -2.12,-0.99 -0.94,-2.25 -0.94,2.25 -2.12,0.99 z" /><path
       id="path74"
       style="fill:#ffffff;fill-opacity:1;fill-rule:evenodd;stroke:none"
       d="m 466.56,517.32 2.12,0.99 0.94,2.25 0.94,-2.25 2.12,-0.99 -2.12,-0.99 -0.94,-2.25 -0.94,2.25 -2.12,0.99 z" /><path
       id="path76"
       style="fill:#ffffff;fill-opacity:1;fill-rule:evenodd;stroke:none"
       d="m 147.84,315 2.12,0.99 0.94,2.25 0.94,-2.25 2.12,-0.99 -2.12,-0.99 -0.94,-2.25 -0.94,2.25 -2.12,0.99 z" /><path
       id="path78"
       style="fill:#ffffff;fill-opacity:1;fill-rule:evenodd;stroke:none"
       d="m 17.28,447.72 2.125,0.99 0.935,2.25 0.935,-2.25 2.125,-0.99 -2.125,-0.99 -0.935,-2.25 -0.935,2.25 -2.125,0.99 z" /><path
       id="path80"
       style="fill:#ffffff;fill-opacity:1;fill-rule:evenodd;stroke:none"
       d="m 628.44,472.8 2.12,0.99 0.94,2.25 0.94,-2.25 2.12,-0.99 -2.12,-0.99 -0.94,-2.25 -0.94,2.25 -2.12,0.99 z" /><path
       id="path82"
       style="fill:#ffffff;fill-opacity:1;fill-rule:evenodd;stroke:none"
       d="m 818.04,442.14 1.5,0.72 0.66,1.62 0.66,-1.62 1.5,-0.72 -1.5,-0.72 -0.66,-1.62 -0.66,1.62 -1.5,0.72 z" /><path
       id="path84"
       style="fill:#ffffff;fill-opacity:1;fill-rule:evenodd;stroke:none"
       d="m 571.44,382.08 1.5,0.7 0.66,1.58 0.66,-1.58 1.5,-0.7 -1.5,-0.7 -0.66,-1.58 -0.66,1.58 -1.5,0.7 z" /><path
       id="path86"
       style="fill:#ffffff;fill-opacity:1;fill-rule:evenodd;stroke:none"
       d="m 360.12,498 1.5,0.7 0.66,1.58 0.66,-1.58 1.5,-0.7 -1.5,-0.7 -0.66,-1.58 -0.66,1.58 -1.5,0.7 z" /><path
       id="path88"
       style="fill:#ffffff;fill-opacity:1;fill-rule:evenodd;stroke:none"
       d="m 36,507.96 1.5,0.7 0.66,1.58 0.66,-1.58 1.5,-0.7 -1.5,-0.7 -0.66,-1.58 -0.66,1.58 -1.5,0.7 z" /><path
       id="path90"
       style="fill:#ffffff;fill-opacity:1;fill-rule:evenodd;stroke:none"
       d="m 49.44,354.12 1.5,0.7 0.66,1.58 0.66,-1.58 1.5,-0.7 -1.5,-0.7 -0.66,-1.58 -0.66,1.58 -1.5,0.7 z" /><path
       id="path92"
       style="fill:#ffffff;fill-opacity:1;fill-rule:evenodd;stroke:none"
       d="m 323.88,365.64 1.5,0.7 0.66,1.58 0.66,-1.58 1.5,-0.7 -1.5,-0.7 -0.66,-1.58 -0.66,1.58 -1.5,0.7 z" /><path
       id="path94"
       style="fill:#ffffff;fill-opacity:1;fill-rule:evenodd;stroke:none"
       d="m 668.4,385.62 1.5,0.72 0.66,1.62 0.66,-1.62 1.5,-0.72 -1.5,-0.72 -0.66,-1.62 -0.66,1.62 -1.5,0.72 z" /><path
       id="path96"
       style="fill:#ffffff;fill-opacity:1;fill-rule:evenodd;stroke:none"
       d="m 881.52,268.56 1.5,0.7 0.66,1.58 0.66,-1.58 1.5,-0.7 -1.5,-0.7 -0.66,-1.58 -0.66,1.58 -1.5,0.7 z" /><path
       id="path98"
       style="fill:#ffffff;fill-opacity:1;fill-rule:evenodd;stroke:none"
       d="m 792.36,296.76 1.5,0.7 0.66,1.58 0.66,-1.58 1.5,-0.7 -1.5,-0.7 -0.66,-1.58 -0.66,1.58 -1.5,0.7 z" /><path
       id="path100"
       style="fill:#ffffff;fill-opacity:1;fill-rule:evenodd;stroke:none"
       d="m 812.16,377.88 3.54,1.65 1.56,3.75 1.56,-3.75 3.54,-1.65 -3.54,-1.65 -1.56,-3.75 -1.56,3.75 -3.54,1.65 z" /><path
       id="path102"
       style="fill:#ffffff;fill-opacity:1;fill-rule:evenodd;stroke:none"
       d="m 645.36,529.44 1.25,0.59 0.55,1.33 0.55,-1.33 1.25,-0.59 -1.25,-0.59 -0.55,-1.33 -0.55,1.33 -1.25,0.59 z" /><path
       id="path104"
       style="fill:#ffffff;fill-opacity:1;fill-rule:evenodd;stroke:none"
       d="m 664.68,525.24 1.5,0.7 0.66,1.58 0.66,-1.58 1.5,-0.7 -1.5,-0.7 -0.66,-1.58 -0.66,1.58 -1.5,0.7 z" /><path
       id="path106"
       style="fill:#ffffff;fill-opacity:1;fill-rule:evenodd;stroke:none"
       d="m 39.72,149.04 2.125,-0.99 0.935,-2.25 0.935,2.25 2.125,0.99 -2.125,0.99 -0.935,2.25 -0.935,-2.25 -2.125,-0.99 z" /><path
       id="path108"
       style="fill:#ffffff;fill-opacity:1;fill-rule:evenodd;stroke:none"
       d="m 218.52,162.36 3.54,-1.65 1.56,-3.75 1.56,3.75 3.54,1.65 -3.54,1.65 -1.56,3.75 -1.56,-3.75 -3.54,-1.65 z" /><path
       id="path110"
       style="fill:#ffffff;fill-opacity:1;fill-rule:evenodd;stroke:none"
       d="m 463.56,62.28 3.54,-1.65 1.56,-3.75 1.56,3.75 3.54,1.65 -3.54,1.65 -1.56,3.75 -1.56,-3.75 -3.54,-1.65 z" /><path
       id="path112"
       style="fill:#ffffff;fill-opacity:1;fill-rule:evenodd;stroke:none"
       d="m 90.24,247.8 3.541,-1.65 1.559,-3.75 1.559,3.75 3.541,1.65 -3.541,1.65 -1.559,3.75 -1.559,-3.75 -3.541,-1.65 z" /><path
       id="path114"
       style="fill:#ffffff;fill-opacity:1;fill-rule:evenodd;stroke:none"
       d="m 298.08,209.16 1.25,-0.59 0.55,-1.33 0.55,1.33 1.25,0.59 -1.25,0.59 -0.55,1.33 -0.55,-1.33 -1.25,-0.59 z" /><path
       id="path116"
       style="fill:#ffffff;fill-opacity:1;fill-rule:evenodd;stroke:none"
       d="m 330.6,45.42 1.25,-0.568 0.55,-1.292 0.55,1.292 1.25,0.568 -1.25,0.568 -0.55,1.292 -0.55,-1.292 -1.25,-0.568 z" /><path
       id="path118"
       style="fill:#ffffff;fill-opacity:1;fill-rule:evenodd;stroke:none"
       d="m 105.24,56.52 1.25,-0.587 0.55,-1.333 0.55,1.333 1.25,0.587 -1.25,0.587 -0.55,1.333 -0.55,-1.333 -1.25,-0.587 z" /><path
       id="path120"
       style="fill:#ffffff;fill-opacity:1;fill-rule:evenodd;stroke:none"
       d="m 441.96,143.88 2.12,-0.99 0.94,-2.25 0.94,2.25 2.12,0.99 -2.12,0.99 -0.94,2.25 -0.94,-2.25 -2.12,-0.99 z" /><path
       id="path122"
       style="fill:#ffffff;fill-opacity:1;fill-rule:evenodd;stroke:none"
       d="m 32.04,26.4 2.125,-0.99 0.935,-2.25 0.935,2.25 2.125,0.99 -2.125,0.99 L 35.1,29.64 34.165,27.39 32.04,26.4 Z" /><path
       id="path124"
       style="fill:#ffffff;fill-opacity:1;fill-rule:evenodd;stroke:none"
       d="m 193.92,70.92 2.12,-0.99 0.94,-2.25 0.94,2.25 2.12,0.99 -2.12,0.99 -0.94,2.25 -0.94,-2.25 -2.12,-0.99 z" /><path
       id="path126"
       style="fill:#ffffff;fill-opacity:1;fill-rule:evenodd;stroke:none"
       d="m 383.52,101.64 1.5,-0.7 0.66,-1.58 0.66,1.58 1.5,0.7 -1.5,0.7 -0.66,1.58 -0.66,-1.58 -1.5,-0.7 z" /><path
       id="path128"
       style="fill:#ffffff;fill-opacity:1;fill-rule:evenodd;stroke:none"
       d="m 136.92,161.7 1.5,-0.72 0.66,-1.62 0.66,1.62 1.5,0.72 -1.5,0.72 -0.66,1.62 -0.66,-1.62 -1.5,-0.72 z" /><path
       id="path130"
       style="fill:#ffffff;fill-opacity:1;fill-rule:evenodd;stroke:none"
       d="m 233.88,158.16 1.5,-0.7 0.66,-1.58 0.66,1.58 1.5,0.7 -1.5,0.7 -0.66,1.58 -0.66,-1.58 -1.5,-0.7 z" /><path
       id="path132"
       style="fill:#ffffff;fill-opacity:1;fill-rule:evenodd;stroke:none"
       d="m 446.88,275.28 1.5,-0.7 0.66,-1.58 0.66,1.58 1.5,0.7 -1.5,0.7 -0.66,1.58 -0.66,-1.58 -1.5,-0.7 z" /><path
       id="path134"
       style="fill:#ffffff;fill-opacity:1;fill-rule:evenodd;stroke:none"
       d="m 357.84,247.02 1.5,-0.72 0.66,-1.62 0.66,1.62 1.5,0.72 -1.5,0.72 -0.66,1.62 -0.66,-1.62 -1.5,-0.72 z" /><path
       id="path136"
       style="fill:#ffffff;fill-opacity:1;fill-rule:evenodd;stroke:none"
       d="m 377.64,165.84 3.54,-1.65 1.56,-3.75 1.56,3.75 3.54,1.65 -3.54,1.65 -1.56,3.75 -1.56,-3.75 -3.54,-1.65 z" /><path
       id="path138"
       style="fill:#ffffff;fill-opacity:1;fill-rule:evenodd;stroke:none"
       d="m 210.84,14.28 1.25,-0.587 0.55,-1.333 0.55,1.333 1.25,0.587 -1.25,0.587 -0.55,1.333 -0.55,-1.333 -1.25,-0.587 z" /><path
       id="path140"
       style="fill:#ffffff;fill-opacity:1;fill-rule:evenodd;stroke:none"
       d="m 230.16,18.48 1.5,-0.697 0.66,-1.583 0.66,1.583 1.5,0.697 -1.5,0.697 -0.66,1.583 -0.66,-1.583 -1.5,-0.697 z" /><path
       id="path142"
       style="fill:#ffffff;fill-opacity:1;fill-rule:evenodd;stroke:none"
       d="m 601.68,158.64 2.12,-0.99 0.94,-2.25 0.94,2.25 2.12,0.99 -2.12,0.99 -0.94,2.25 -0.94,-2.25 -2.12,-0.99 z" /><path
       id="path144"
       style="fill:#ffffff;fill-opacity:1;fill-rule:evenodd;stroke:none"
       d="m 780.48,171.96 3.54,-1.65 1.56,-3.75 1.56,3.75 3.54,1.65 -3.54,1.65 -1.56,3.75 -1.56,-3.75 -3.54,-1.65 z" /><path
       id="path146"
       style="fill:#ffffff;fill-opacity:1;fill-rule:evenodd;stroke:none"
       d="m 652.2,257.4 3.54,-1.65 1.56,-3.75 1.56,3.75 3.54,1.65 -3.54,1.65 -1.56,3.75 -1.56,-3.75 -3.54,-1.65 z" /><path
       id="path148"
       style="fill:#ffffff;fill-opacity:1;fill-rule:evenodd;stroke:none"
       d="m 859.92,218.76 1.25,-0.59 0.55,-1.33 0.55,1.33 1.25,0.59 -1.25,0.59 -0.55,1.33 -0.55,-1.33 -1.25,-0.59 z" /><path
       id="path150"
       style="fill:#ffffff;fill-opacity:1;fill-rule:evenodd;stroke:none"
       d="m 892.56,55.08 1.25,-0.587 0.55,-1.333 0.55,1.333 1.25,0.587 -1.25,0.587 -0.55,1.333 -0.55,-1.333 -1.25,-0.587 z" /><path
       id="path152"
       style="fill:#ffffff;fill-opacity:1;fill-rule:evenodd;stroke:none"
       d="m 667.08,66.12 1.25,-0.587 0.55,-1.333 0.55,1.333 1.25,0.587 -1.25,0.587 -0.55,1.333 -0.55,-1.333 -1.25,-0.587 z" /><path
       id="path154"
       style="fill:#ffffff;fill-opacity:1;fill-rule:evenodd;stroke:none"
       d="m 526.32,68.04 1.25,-0.587 0.55,-1.333 0.55,1.333 1.25,0.587 -1.25,0.587 -0.55,1.333 -0.55,-1.333 -1.25,-0.587 z" /><path
       id="path156"
       style="fill:#ffffff;fill-opacity:1;fill-rule:evenodd;stroke:none"
       d="m 594,36.12 2.12,-0.99 0.94,-2.25 0.94,2.25 2.12,0.99 -2.12,0.99 -0.94,2.25 -0.94,-2.25 -2.12,-0.99 z" /><path
       id="path158"
       style="fill:#ffffff;fill-opacity:1;fill-rule:evenodd;stroke:none"
       d="m 755.88,80.52 2.12,-0.99 0.94,-2.25 0.94,2.25 2.12,0.99 -2.12,0.99 -0.94,2.25 -0.94,-2.25 -2.12,-0.99 z" /><path
       id="path160"
       style="fill:#ffffff;fill-opacity:1;fill-rule:evenodd;stroke:none"
       d="m 945.48,111.24 1.5,-0.7 0.66,-1.58 0.66,1.58 1.5,0.7 -1.5,0.7 -0.66,1.58 -0.66,-1.58 -1.5,-0.7 z" /><path
       id="path162"
       style="fill:#ffffff;fill-opacity:1;fill-rule:evenodd;stroke:none"
       d="m 698.88,171.36 1.5,-0.7 0.66,-1.58 0.66,1.58 1.5,0.7 -1.5,0.7 -0.66,1.58 -0.66,-1.58 -1.5,-0.7 z" /><path
       id="path164"
       style="fill:#ffffff;fill-opacity:1;fill-rule:evenodd;stroke:none"
       d="m 795.84,167.76 1.5,-0.7 0.66,-1.58 0.66,1.58 1.5,0.7 -1.5,0.7 -0.66,1.58 -0.66,-1.58 -1.5,-0.7 z" /><path
       id="path166"
       style="fill:#ffffff;fill-opacity:1;fill-rule:evenodd;stroke:none"
       d="m 919.68,256.68 1.5,-0.7 0.66,-1.58 0.66,1.58 1.5,0.7 -1.5,0.7 -0.66,1.58 -0.66,-1.58 -1.5,-0.7 z" /><path
       id="path168"
       style="fill:#ffffff;fill-opacity:1;fill-rule:evenodd;stroke:none"
       d="m 939.6,175.44 3.54,-1.65 1.56,-3.75 1.56,3.75 3.54,1.65 -3.54,1.65 -1.56,3.75 -1.56,-3.75 -3.54,-1.65 z" /><path
       id="path170"
       style="fill:#ffffff;fill-opacity:1;fill-rule:evenodd;stroke:none"
       d="m 772.8,23.94 1.25,-0.568 0.55,-1.292 0.55,1.292 1.25,0.568 -1.25,0.568 -0.55,1.292 -0.55,-1.292 -1.25,-0.568 z" /><path
       id="path172"
       style="fill:#ffffff;fill-opacity:1;fill-rule:evenodd;stroke:none"
       d="m 792,28.14 1.5,-0.715 0.66,-1.625 0.66,1.625 1.5,0.715 -1.5,0.715 -0.66,1.625 -0.66,-1.625 -1.5,-0.715 z" /></g></svg>